<svg width="900" height="650" viewBox="0 0 900 650" fill="none" xmlns="http://www.w3.org/2000/svg">

    <!-- Background -->
    <rect width="900" height="650" fill="#F8F6F1" />

    <!-- Kitchen Outline -->
    <path
        d="
      M170 160
      H730
      V520
      H540
      V255
      H360
      V520
      H170
      Z"
        fill="#ffffff"
        stroke="#1A1A18"
        stroke-width="6"
        stroke-linejoin="round" />

    <!-- Countertop -->
    <path
        d="
      M195 185
      H705
      V495
      H565
      V280
      H335
      V495
      H195
      Z"
        fill="#ECE7DF" />

    <!-- Sink -->
    <rect
        x="245"
        y="300"
        width="90"
        height="60"
        rx="12"
        fill="#D8E6EC"
        stroke="#1A1A18"
        stroke-width="2" />

    <circle
        cx="290"
        cy="330"
        r="10"
        fill="#B6C8D1" />

    <!-- Hob -->
    <rect
        x="420"
        y="185"
        width="120"
        height="80"
        rx="10"
        fill="#2E2E2B" />

    <circle cx="448" cy="210" r="10" fill="#C8A97A" />
    <circle cx="512" cy="210" r="10" fill="#C8A97A" />
    <circle cx="448" cy="242" r="10" fill="#C8A97A" />
    <circle cx="512" cy="242" r="10" fill="#C8A97A" />

    <!-- Refrigerator -->
    <rect
        x="575"
        y="330"
        width="90"
        height="90"
        rx="8"
        fill="#DADADA"
        stroke="#1A1A18"
        stroke-width="2" />

    <line
        x1="620"
        y1="335"
        x2="620"
        y2="415"
        stroke="#999"
        stroke-width="2" />

    <!-- Pantry -->
    <rect
        x="195"
        y="185"
        width="45"
        height="120"
        rx="4"
        fill="#D8D2C8"
        stroke="#1A1A18"
        stroke-width="2" />

    <!-- Magic Corner Left -->
    <circle cx="335" cy="495" r="8" fill="#C8A97A" />

    <!-- Magic Corner Right -->
    <circle cx="565" cy="495" r="8" fill="#C8A97A" />

    <!-- Work Triangle -->
    <path
        d="M290 330 L480 225 L620 375 Z"
        stroke="#C8A97A"
        stroke-width="4"
        stroke-dasharray="12 10"
        fill="none" />

    <!-- Sink -->
    <circle cx="105" cy="330" r="20" fill="#C8A97A" />

    <text
        x="105"
        y="337"
        text-anchor="middle"
        font-family="Inter"
        font-size="15"
        fill="white">
        ①
    </text>

    <line
        x1="125"
        y1="330"
        x2="245"
        y2="330"
        stroke="#C8A97A"
        stroke-width="2" />

    <text
        x="55"
        y="375"
        font-family="Inter"
        font-size="18"
        fill="#1A1A18">
        Sink
    </text>

    <!-- Hob -->
    <circle cx="480" cy="110" r="20" fill="#C8A97A" />

    <text
        x="480"
        y="117"
        text-anchor="middle"
        font-family="Inter"
        font-size="15"
        fill="white">
        ②
    </text>

    <line
        x1="480"
        y1="130"
        x2="480"
        y2="185"
        stroke="#C8A97A"
        stroke-width="2" />

    <text
        x="505"
        y="112"
        font-family="Inter"
        font-size="18"
        fill="#1A1A18">
        Hob
    </text>

    <!-- Refrigerator -->
    <circle cx="770" cy="375" r="20" fill="#C8A97A" />

    <text
        x="770"
        y="382"
        text-anchor="middle"
        font-family="Inter"
        font-size="15"
        fill="white">
        ③
    </text>

    <line
        x1="750"
        y1="375"
        x2="665"
        y2="375"
        stroke="#C8A97A"
        stroke-width="2" />

    <text
        x="790"
        y="420"
        font-family="Inter"
        font-size="18"
        fill="#1A1A18">
        Refrigerator
    </text>

    <!-- Pantry Label -->
    <line
        x1="215"
        y1="185"
        x2="80"
        y2="140"
        stroke="#C8A97A"
        stroke-width="2" />

    <text
        x="25"
        y="145"
        font-family="Inter"
        font-size="18"
        fill="#1A1A18">
        Pantry Unit
    </text>

    <!-- Corner Label -->
    <line
        x1="565"
        y1="495"
        x2="760"
        y2="525"
        stroke="#C8A97A"
        stroke-width="2" />

    <text
        x="770"
        y="530"
        font-family="Inter"
        font-size="18"
        fill="#1A1A18">
        Magic Corner Storage
    </text>

</svg>