<svg width="900" height="650" viewBox="0 0 900 650" fill="none" xmlns="http://www.w3.org/2000/svg">

    <!-- Background -->
    <rect width="900" height="650" fill="#F8F6F1" />

    <!-- Left Counter -->
    <rect
        x="180"
        y="160"
        width="180"
        height="360"
        rx="6"
        fill="#ffffff"
        stroke="#1A1A18"
        stroke-width="6" />

    <rect
        x="205"
        y="185"
        width="130"
        height="310"
        fill="#ECE7DF" />

    <!-- Right Counter -->
    <rect
        x="540"
        y="160"
        width="180"
        height="360"
        rx="6"
        fill="#ffffff"
        stroke="#1A1A18"
        stroke-width="6" />

    <rect
        x="565"
        y="185"
        width="130"
        height="310"
        fill="#ECE7DF" />

    <!-- Sink -->
    <rect
        x="225"
        y="230"
        width="90"
        height="60"
        rx="12"
        fill="#D8E6EC"
        stroke="#1A1A18"
        stroke-width="2" />

    <circle
        cx="270"
        cy="260"
        r="10"
        fill="#B6C8D1" />

    <!-- Hob -->
    <rect
        x="570"
        y="220"
        width="120"
        height="80"
        rx="10"
        fill="#2E2E2B" />

    <circle cx="598" cy="245" r="10" fill="#C8A97A" />
    <circle cx="662" cy="245" r="10" fill="#C8A97A" />
    <circle cx="598" cy="277" r="10" fill="#C8A97A" />
    <circle cx="662" cy="277" r="10" fill="#C8A97A" />

    <!-- Refrigerator -->
    <rect
        x="225"
        y="395"
        width="90"
        height="90"
        rx="8"
        fill="#DADADA"
        stroke="#1A1A18"
        stroke-width="2" />

    <line
        x1="270"
        y1="400"
        x2="270"
        y2="480"
        stroke="#999"
        stroke-width="2" />

    <!-- Pantry -->
    <rect
        x="570"
        y="360"
        width="60"
        height="130"
        rx="4"
        fill="#D8D2C8"
        stroke="#1A1A18"
        stroke-width="2" />

    <!-- Bottle Pullout -->
    <rect
        x="640"
        y="360"
        width="28"
        height="130"
        rx="3"
        fill="#EFE6D6"
        stroke="#C8A97A"
        stroke-width="2" />

    <!-- Work Triangle -->
    <path
        d="M270 260 L630 260 L270 440 Z"
        stroke="#C8A97A"
        stroke-width="4"
        stroke-dasharray="12 10"
        fill="none" />

    <!-- Sink -->
    <circle cx="110" cy="260" r="20" fill="#C8A97A" />

    <text
        x="110"
        y="267"
        text-anchor="middle"
        font-family="Inter"
        font-size="15"
        fill="white">
        ①
    </text>

    <line
        x1="130"
        y1="260"
        x2="225"
        y2="260"
        stroke="#C8A97A"
        stroke-width="2" />

    <text
        x="55"
        y="305"
        font-family="Inter"
        font-size="18"
        fill="#1A1A18">
        Sink
    </text>

    <!-- Hob -->
    <circle cx="790" cy="260" r="20" fill="#C8A97A" />

    <text
        x="790"
        y="267"
        text-anchor="middle"
        font-family="Inter"
        font-size="15"
        fill="white">
        ②
    </text>

    <line
        x1="770"
        y1="260"
        x2="690"
        y2="260"
        stroke="#C8A97A"
        stroke-width="2" />

    <text
        x="805"
        y="305"
        font-family="Inter"
        font-size="18"
        fill="#1A1A18">
        Hob
    </text>

    <!-- Refrigerator -->
    <circle cx="110" cy="440" r="20" fill="#C8A97A" />

    <text
        x="110"
        y="447"
        text-anchor="middle"
        font-family="Inter"
        font-size="15"
        fill="white">
        ③
    </text>

    <line
        x1="130"
        y1="440"
        x2="225"
        y2="440"
        stroke="#C8A97A"
        stroke-width="2" />

    <text
        x="18"
        y="485"
        font-family="Inter"
        font-size="18"
        fill="#1A1A18">
        Refrigerator
    </text>

    <!-- Pantry Label -->
    <line
        x1="600"
        y1="490"
        x2="770"
        y2="520"
        stroke="#C8A97A"
        stroke-width="2" />

    <text
        x="780"
        y="525"
        font-family="Inter"
        font-size="18"
        fill="#1A1A18">
        Tall Pantry
    </text>

    <!-- Bottle Pullout Label -->
    <line
        x1="655"
        y1="360"
        x2="790"
        y2="360"
        stroke="#C8A97A"
        stroke-width="2" />

    <text
        x="800"
        y="365"
        font-family="Inter"
        font-size="18"
        fill="#1A1A18">
        Bottle Pull-Out
    </text>

</svg>